<?xml version="1.0" encoding="UTF-8"?>
<svg id="Layer_1" data-name="Layer 1" xmlns="http://www.w3.org/2000/svg" viewBox="0 0 1277.29 1335.52">
  <defs>
    <style>
      .cls-1 {
        fill: #dc3645;
        stroke-width: 30px;
      }

      .cls-1, .cls-2 {
        stroke: #dc3645;
        stroke-miterlimit: 10;
      }

      .cls-2 {
        fill: rgba(220, 54, 69, .5);
        stroke-width: 50px;
      }
    </style>
  </defs>
  <polygon class="cls-1" points="1239.24 39.25 1184.97 140.52 1130.65 241.74 1039.41 154.49 1139.31 96.86 1239.24 39.25"/>
  <path class="cls-2" d="M1078.06,202.64c-28.05,13.24-66.52,38.22-85.75,87.05-44.3,112.47,53.45,249.86,4,276.93-14.98,8.2-89.99,4.14-230.43-71.6-191.26-103.15-17.97,149.3,43.69,292.84,61.63,143.6-290.59-116.67-368.98-109.7-78.36,6.93,224.59,385.88,145.59,392.29-78.92,6.36-431.02-253.8-368.93-109.75,62.13,144.01,235.21,396.25,43.68,292.84-117.23-63.33-207-99.88-230.45-71.69-10.49,12.61-10.88,44.4,45.15,141.13"/>
</svg>